# xmcd
#
# Track frame offsets:
#	150
#	12790
#	26250
#	40163
#	56698
#	77755
#	91687
#	101307
#	115314
#	125685
#	136861
#	151177
#	163551
#	172911
#	184082
#	195814
#	206199
#	217689
#	227872
#	242257
#
# Disc length: 3521 seconds
#
# Revision: 1
# Processed by: cddbd v1.5.2PL0 Copyright (c) Steve Scherf et al.
# Submitted via: EasyCDDAExtractor 9.1.0.1
#
DISCID=ea0dbf14
DTITLE=Various Artist - Bluegrass Top 20 Gospel Songs Of The Century
DYEAR=2006
DGENRE=Bluegrass
TTITLE0=Patty Loveless - Daniel Prayed
TTITLE1=Rhonda Vincent - You Don't Love God If You Don't Love Your Neighbor
TTITLE2=Ricky Skaggs - Rank Stranger
TTITLE3=The Isaacs - In His Arms I'm Not Afraid
TTITLE4=IIIrd Time Out - Across The Miles
TTITLE5=Cox Family - Standing By The Bedside Of A Neighbor
TTITLE6=Doyle Lawson and Quicksilver - On The Sea Of Life
TTITLE7=Alison Krauss and Union Station - Heaven's Bright Shore
TTITLE8=J.D.Crowe and The New South - Crying Holy
TTITLE9=Marty Stuart - Get In Line Brother
TTITLE10=Emmylou Harris - Green Pastures
TTITLE11=Ricky Skaggs and Tony Rice - The Old Crossroads
TTITLE12=The Marshall Family - Children Go Where I Send Thee
TTITLE13=Bill Monroe - A Beautiful Life
TTITLE14=Jimmy Martin - Prayer Bells Of Heaven
TTITLE15=Stanley Brothers - Angel Band
TTITLE16=Reno and Smiley - I'm Using My Bible For A Road Map
TTITLE17=Flatt and Skruggs - Take Me In A Life Boat
TTITLE18=Bill and Charlie Monroe - What Would You Give In Exchange For Your Soul
TTITLE19=Nitty Gritty Dirt Band - Will The Circle Be Unbroken
EXTD=YEAR: 2006
EXTT0=
EXTT1=
EXTT2=
EXTT3=
EXTT4=
EXTT5=
EXTT6=
EXTT7=
EXTT8=
EXTT9=
EXTT10=
EXTT11=
EXTT12=
EXTT13=
EXTT14=
EXTT15=
EXTT16=
EXTT17=
EXTT18=
EXTT19=
PLAYORDER=
